<mxfile host="app.diagrams.net" modified="2023-08-25T13:55:49.671Z" agent="Mozilla/5.0 (X11; Linux x86_64; rv:109.0) Gecko/20100101 Firefox/112.0" version="21.6.9" etag="HTaws6-oO4q9PZjx2NhK" type="github">
  <diagram name="PÃ¡gina-1" id="uLX-gi1BrhmAP5r8ZPyA">
    <mxGraphModel>
      <root>
        <mxCell id="0" />
        <mxCell id="1" parent="0" />
      </root>
    </mxGraphModel>
  </diagram>
</mxfile>
